# xmcd
# Track frame offsets:
# 150
# 22207
# 51630
# 82190
# 107145
# 130162
# 148702
# 177050
# 202060
# 223500
#
# Disc length: 3368 seconds
# Revision: 0
# Processed by: cddbd v1.5.1PL2 Copyright (c) Steve Scherf et al.
# Submitted via: VisiTrax 2.10.0.248 - For more info visit www.synapsa.com
#
DISCID=9e0d260a
DTITLE=Dr. John - Right Place, Right Time
DYEAR=2006
DGENRE=
TTITLE0=Junco Partner
TTITLE1=Renegade
TTITLE2=I Walk On Guilded Splinters
TTITLE3=Traveling Mood
TTITLE4=Black Widow
TTITLE5=Let The Good Times Roll
TTITLE6=Kinfolks
TTITLE7=Don't Let The Sun Catch You Crying
TTITLE8=Wang Dang Doodle
TTITLE9=Such A Night
EXTD=
EXTT0=
EXTT1=
EXTT2=
EXTT3=
EXTT4=
EXTT5=
EXTT6=
EXTT7=
EXTT8=
EXTT9=
PLAYORDER=
